PathFileType	4	(X/Y/Z)	pose_F01_0-92.trc
DataRate	CameraRate	NumFrames	NumMarkers	Units	OrigDataRate	OrigDataStartFrame	OrigNumFrames
30	30	9	21	m	30	52	92
Frame#	Time	CHip			RHip			RKnee			RAnkle			RBigToe			RSmallToe			RHeel			LHip			LKnee			LAnkle			LBigToe			LSmallToe			LHeel			Neck			Nose			RShoulder			RElbow			RWrist			LShoulder			LElbow			LWrist			
		X1	Y1	Z1	X2	Y2	Z2	X3	Y3	Z3	X4	Y4	Z4	X5	Y5	Z5	X6	Y6	Z6	X7	Y7	Z7	X8	Y8	Z8	X9	Y9	Z9	X10	Y10	Z10	X11	Y11	Z11	X12	Y12	Z12	X13	Y13	Z13	X14	Y14	Z14	X15	Y15	Z15	X16	Y16	Z16	X17	Y17	Z17	X18	Y18	Z18	X19	Y19	Z19	X20	Y20	Z20	X21	Y21	Z21	
52	1.7333333333333334	-0.14972905811558568	1.8739541202519592	-0.4135523851086438	-0.15693346235829306	1.8701381831800552	-0.349329947333965	-0.1700284021269893	1.7252070219717839	-0.34441370133629373													-0.14314994809925619	1.8749708381904642	-0.4749419412842976	-0.15415699887322482	1.7279757589343492	-0.47822162967300086	-0.12558894246131944	1.5914905871115934	-0.5155002280982168	-0.15170998549595352	1.5588049604785752	-0.5529442381648956	-0.13692745711000287	1.5668717527213558	-0.5695292398917441	-0.11780519103184241	1.581156930213439	-0.5005844192960912	-0.1496686828973869	2.0266218659093984	-0.4232292987519589	-0.18825635058972537	2.075556770959068	-0.4193191857230333	-0.15211909001991955	2.0233493027636307	-0.34509514871351166	-0.19206332646124333	1.9758879340524433	-0.2969983347739178	-0.18132974035139657	2.027373424386649	-0.34130358872754923	-0.147437444774227	2.0295676668346214	-0.5071819205616734	-0.15338764544324782	1.952172419586471	-0.5184941566019097	-0.1910441858947748	1.8766518161434742	-0.5217165659223554
53	1.7666666666666666	-0.15482214695996735	1.8684550609171426	-0.4115789438917883	-0.15918203427370395	1.8648995836771924	-0.3462609742842434	-0.17006931540770387	1.7231412519507463	-0.3439452542599774													-0.14744607827701703	1.8695246109939676	-0.4696369806902616	-0.15449193924361254	1.7309248943663054	-0.4780617346852117	-0.1275500058713864	1.5911712402862617	-0.513245244556721	-0.1527756604326205	1.558861719606484	-0.5474504406053313	-0.1360410683302476	1.566936509491919	-0.5662572740241267	-0.11766524766664412	1.5800692258437714	-0.5008274983851977	-0.1496112098309413	2.0267571385112033	-0.4232377276617308	-0.18636484789801686	2.078403311720947	-0.42265875931809727	-0.15200202025957002	2.023965578847701	-0.3451974397240711	-0.19588060775285596	1.9813697111779947	-0.3027167316217277	-0.18375136558457486	2.035101349094115	-0.3519568276630643	-0.14643116610661505	2.030624017740237	-0.5039304246710733	-0.15526126983473273	1.9530629373130144	-0.5162676501466574	-0.19004241174308606	1.8778142367047335	-0.5184844290822351
54	1.8	-0.1517099476866341	1.8708777775696064	-0.4107880263864341	-0.15875193908689622	1.8682949326494718	-0.3466971473254384	-0.1699285006265118	1.7248916216822117	-0.3443687318574232													-0.14518539664399702	1.8718310015325699	-0.47220279958829275	-0.15246372807906725	1.7307987130116056	-0.4802685341493354	-0.12551937886053774	1.5915446182837996	-0.5155006309163562	-0.15068548592396247	1.5585350511275458	-0.5496718381436144	-0.13596160405078692	1.5668050961645716	-0.566247549416524	-0.11734890508148423	1.579102683291185	-0.500901172234791	-0.1496473615232475	2.02694589011817	-0.42310316960724104	-0.18611102381350778	2.0832304669391584	-0.4230477082630832	-0.1520256270473565	2.024828091792868	-0.34500206972045583	-2.2457189187360607	1.9175620142886391	2.1328338667630256	-0.18311838444107717	2.0361533586652656	-0.35867607776771404	-0.14561977423990247	2.031729217903398	-0.501265479416233	-0.1558025181681598	1.9517240990318105	-0.5079070529909938	-0.19094975633418287	1.8788236235421185	-0.5099385918036425
55	1.8333333333333333	-0.15366250961406736	1.8706957646238305	-0.4085745478275636	-0.16077960342600003	1.8672041237913388	-0.3443593349231472	-0.17002373516615177	1.7252932367752114	-0.34429861716169813													-0.1471588335412218	1.8716856622116163	-0.4699406212553216	-0.15217031907431938	1.7292667233679473	-0.48042181333408446	-0.12554611308609132	1.5913670545848524	-0.5154524547697702	-0.15371848125715742	1.5585822897676243	-0.5507803276500146	-0.1374144747635697	1.5667827346544299	-0.5686032911243329	-0.11779762147143909	1.5786641302333198	-0.500313373256851	-0.1495974541065857	2.0269068587284673	-0.423061622361256	-0.18325635985887398	2.083077201318561	-0.42196832462907014	-0.15382655896331132	2.0227142500762323	-0.342269175040493	-2.2632142607533234	1.9192872797588936	2.1687419363436162	-0.18154990563795784	2.035246031816731	-0.35535429659567397	-0.14276333790746923	2.0316864847799647	-0.5003533768399909	-0.15570668812108374	1.9528831735926362	-0.5078437526788073	-0.1898853400396753	1.8814604989728556	-0.5070804286761392
56	1.8666666666666667	-0.1557518825774229	1.8693229011530406	-0.4060313164008495	-0.16280645981301925	1.8657855310232156	-0.3418343897162022	-0.16997064204223405	1.725112518123629	-0.34435433092554735													-0.14943715463773838	1.869344610169898	-0.46727294016518856	-0.15213235681388243	1.7319663778967522	-0.48073056553277765	-0.12532412142062926	1.592634984540582	-0.5159278624582164	-0.15164719671927285	1.5588827986772726	-0.5530034640402183	-0.13688473685427222	1.5669609991032307	-0.5695571848269547	-0.11797732294216623	1.581735768846154	-0.5005031803091572	-0.14854178327970832	2.0279363780376087	-0.4200336762953338	-0.18214893648508443	2.083900083019317	-0.41877393513327604	-0.150894931562722	2.023865126997729	-0.3412969545511417	-2.280709602770586	1.9210125452291478	2.204650005924207	-0.1799814268348385	2.0343387049681962	-0.35203251542363395	-0.14270025479355142	2.031712736372288	-0.5003866122388756	-0.15565226762058892	1.9528366328418438	-0.5077607474951429	-0.18798246480460173	1.8794351132109641	-0.5001324260651115
57	1.9	-0.1568157720851905	1.868328747012658	-0.40034798236664726	-0.16290394992394688	1.8673463867124118	-0.34213997628987225	-0.1682108352672192	1.728559875885883	-0.3468595035001859													-0.15069559960427326	1.871075314943414	-0.4620439947958777	-0.15043520426701518	1.7375709094701444	-0.48334361791996344	-0.12550934917115755	1.591222758712044	-0.5153703225113382	-0.15372670899234117	1.5586347364305475	-0.5508800515928125	-0.13723972431733186	1.5655664872694088	-0.5689752659491928	-0.11775879325231403	1.5783487411714676	-0.500218660283738	-0.1494631968487113	2.028082789930253	-0.4229732602306592	-0.18014653354009644	2.0836680716408003	-0.4123175100073854	-0.15086989159841904	2.0249882828055314	-0.3411065367603852	-2.298204944787849	1.9227378106994022	2.2405580755047976	-0.17841294803171917	2.0334313781196616	-0.3487107342515939	-0.14352751576456949	2.031839977775662	-0.5034497302441985	-0.15763507618001601	1.9528624938815562	-0.5055595356542089	-0.187821285924532	1.8800943178296399	-0.5003629717397716
58	1.9333333333333333	-0.15651621946562677	1.8704750377980905	-0.40061401918389444	-0.15990274219127526	1.869368418562727	-0.34138989854622426	-0.16819569777837967	1.7258240435536698	-0.34635830138318235													-0.1505555995868212	1.8721109508974236	-0.4621768191582264	-0.14996185034376255	1.7338464652770063	-0.48327751607852293	-0.12528529551417478	1.5925422423398676	-0.5160071196506437	-0.15163703100773993	1.558594443356421	-0.5530507239069007	-0.1368997947750003	1.5667949504154275	-0.5696350568979364	-0.11980912844309743	1.580940125036716	-0.49834566529559476	-0.14854899009353312	2.0278920685325996	-0.4199149214728641	-0.178159788423226	2.0850134528837407	-0.40648478522912246	-0.14814370681051725	2.0234784858985058	-0.3400869774054321	-2.3157002868051118	1.9244630761696566	2.2764661450853882	-0.1768444692285998	2.032524051271127	-0.34538895307955386	-0.14268960580158055	2.0327946566964488	-0.5001652743007049	-0.15764261346257005	1.9528693408588975	-0.5055005519553384	-0.18482450743305429	1.8791439747703904	-0.499148563873447
59	1.9666666666666666	-0.15677971246911337	1.8680540333369455	-0.40023370237818146	-0.16001398453275012	1.8656207643887428	-0.34077136170289407	-0.16832419444941435	1.727578949535035	-0.34634175533540207													-0.15063915349124007	1.8693894112919176	-0.46171660171058404	-0.14950971275913108	1.7376012100125353	-0.48012631620331575	-0.1256929555168032	1.5896719223437104	-0.514881742164725	-0.15272124268380355	1.5583454545640023	-0.5474711596666539	-0.13921426396397155	1.5652386165645957	-0.5666698008778662	-0.11832760159372863	1.578670433084032	-0.4994113169690339	-0.14849722403753832	2.028974695088589	-0.41994008909099295	-0.17625046438861763	2.0833685420476065	-0.39950836900288333	-0.14728998610335703	2.023791566561043	-0.3456114942920451	-2.333195628822374	1.9261883416399108	2.312374214665979	-0.17527599042548048	2.0316167244225922	-0.3420671719075138	-0.14661967266134268	2.032746646200898	-0.4957684601449532	-0.15763949003769293	1.954241655969927	-0.5054322185487529	-0.1867861780788446	1.8757551575336389	-0.496504797594452
60	2.0	-0.15761637222034725	1.8689458097924248	-0.39471531818894967	-0.16169324066882826	1.8666961897262595	-0.3386012951477923	-0.16723781468735993	1.7289460105129328	-0.3433861946519583													-0.1525264541693954	1.8703914094434493	-0.45946120946683366	-0.14904046770900556	1.7390854931246935	-0.4808100064870892	-0.12519477283609118	1.5923190469080937	-0.516148273359183	-0.15060462443978254	1.5585516768001693	-0.5497474465838301	-0.13477902871642294	1.5667967468879884	-0.5717678986138176	-0.11774083696014497	1.580637979133084	-0.5005728916259036	-0.14857355807678435	2.0279005907642724	-0.4198888183292023	-0.17526789217524263	2.0832697265073348	-0.3968963383668947	-0.14814485041061518	2.022365020466164	-0.340212584383521	-2.350690970839637	1.9279136071101652	2.3482822842465696	-0.17370751162236114	2.0307093975740576	-0.3387453907354737	-0.14670010253839869	2.0327411366761585	-0.4956429915336036	-0.15754275144057167	1.9528695406979448	-0.5049929258275411	-0.1864512435747856	1.8755384461024602	-0.49626529164521815
